<svg width="1109" height="42" viewBox="0 0 1109 42" fill="none" xmlns="http://www.w3.org/2000/svg">
<path fill-rule="evenodd" clip-rule="evenodd" d="M126.806 12.0368C126.269 12.5264 125.558 12.7712 124.675 12.7712C123.792 12.7712 123.082 12.5264 122.544 12.0368C122.006 11.5472 121.738 10.9376 121.738 10.208C121.738 9.45923 122.006 8.84003 122.544 8.35043C123.082 7.86083 123.792 7.61603 124.675 7.61603C125.558 7.61603 126.269 7.86083 126.806 8.35043C127.344 8.84003 127.613 9.45923 127.613 10.208C127.613 10.9376 127.344 11.5472 126.806 12.0368ZM63.5904 27.0272V30.8H52.0992V10.4384H57.024V27.0272H63.5904ZM77.6592 30.008C76.4016 30.6704 74.976 31.0016 73.3824 31.0016C71.7888 31.0016 70.3584 30.6704 69.0912 30.008C67.824 29.3456 66.8304 28.3904 66.1104 27.1424C65.3904 25.8944 65.0304 24.4352 65.0304 22.7648C65.0304 21.0944 65.3904 19.6352 66.1104 18.3872C66.8304 17.1392 67.824 16.184 69.0912 15.5216C70.3584 14.8592 71.7888 14.528 73.3824 14.528C74.976 14.528 76.4016 14.8592 77.6592 15.5216C78.9168 16.184 79.9056 17.1392 80.6256 18.3872C81.3456 19.6352 81.7056 21.0944 81.7056 22.7648C81.7056 24.4352 81.3456 25.8944 80.6256 27.1424C79.9056 28.3904 78.9168 29.3456 77.6592 30.008ZM73.3824 26.7104C72.4416 26.7104 71.6496 26.3744 71.0064 25.7024C70.3632 25.0304 70.0416 24.0512 70.0416 22.7648C70.0416 21.4784 70.3632 20.4944 71.0064 19.8128C71.6496 19.1312 72.4416 18.7904 73.3824 18.7904C74.3232 18.7904 75.1104 19.1312 75.744 19.8128C76.3776 20.4944 76.6944 21.4784 76.6944 22.7648C76.6944 24.0512 76.3776 25.0304 75.744 25.7024C75.1104 26.3744 74.3232 26.7104 73.3824 26.7104ZM96.8832 37.6256C95.6928 38.336 94.2144 38.6912 92.448 38.6912C90.0288 38.6912 88.0944 38.12 86.6448 36.9776C85.1952 35.8352 84.3264 34.2848 84.0384 32.3264H88.9056C89.0592 32.9792 89.4096 33.488 89.9568 33.8528C90.504 34.2176 91.2192 34.4 92.1024 34.4C93.12 34.4 93.9408 34.1072 94.5648 33.5216C95.1888 32.936 95.5008 32 95.5008 30.7136V27.8912C95.0784 28.8512 94.4256 29.6096 93.5424 30.1664C92.6592 30.7232 91.6032 31.0016 90.3744 31.0016C89.0496 31.0016 87.864 30.6704 86.8176 30.008C85.7712 29.3456 84.9456 28.3904 84.3408 27.1424C83.736 25.8944 83.4336 24.4352 83.4336 22.7648C83.4336 21.0752 83.736 19.6112 84.3408 18.3728C84.9456 17.1344 85.7712 16.184 86.8176 15.5216C87.864 14.8592 89.0496 14.528 90.3744 14.528C91.6032 14.528 92.6592 14.8064 93.5424 15.3632C94.4256 15.92 95.0784 16.6784 95.5008 17.6384V14.7296H100.397V30.7136C100.397 32.2112 100.109 33.56 99.5328 34.76C98.9568 35.96 98.0736 36.9152 96.8832 37.6256ZM91.9584 26.6816C90.9024 26.6816 90.0528 26.336 89.4096 25.6448C88.7664 24.9536 88.4448 23.9936 88.4448 22.7648C88.4448 21.536 88.7664 20.576 89.4096 19.8848C90.0528 19.1936 90.9024 18.848 91.9584 18.848C92.9952 18.848 93.8448 19.1984 94.5072 19.8992C95.1696 20.6 95.5008 21.5552 95.5008 22.7648C95.5008 23.9552 95.1696 24.9056 94.5072 25.616C93.8448 26.3264 92.9952 26.6816 91.9584 26.6816ZM115.589 30.008C114.331 30.6704 112.906 31.0016 111.312 31.0016C109.718 31.0016 108.288 30.6704 107.021 30.008C105.754 29.3456 104.76 28.3904 104.04 27.1424C103.32 25.8944 102.96 24.4352 102.96 22.7648C102.96 21.0944 103.32 19.6352 104.04 18.3872C104.76 17.1392 105.754 16.184 107.021 15.5216C108.288 14.8592 109.718 14.528 111.312 14.528C112.906 14.528 114.331 14.8592 115.589 15.5216C116.846 16.184 117.835 17.1392 118.555 18.3872C119.275 19.6352 119.635 21.0944 119.635 22.7648C119.635 24.4352 119.275 25.8944 118.555 27.1424C117.835 28.3904 116.846 29.3456 115.589 30.008ZM111.312 26.7104C110.371 26.7104 109.579 26.3744 108.936 25.7024C108.293 25.0304 107.971 24.0512 107.971 22.7648C107.971 21.4784 108.293 20.4944 108.936 19.8128C109.579 19.1312 110.371 18.7904 111.312 18.7904C112.253 18.7904 113.04 19.1312 113.674 19.8128C114.307 20.4944 114.624 21.4784 114.624 22.7648C114.624 24.0512 114.307 25.0304 113.674 25.7024C113.04 26.3744 112.253 26.7104 111.312 26.7104ZM127.123 14.7296H122.198V30.8H127.123V14.7296ZM135.446 27.8912V38.4608H130.522V14.7296H135.446V17.6384C135.85 16.6784 136.493 15.92 137.376 15.3632C138.259 14.8064 139.315 14.528 140.544 14.528C141.869 14.528 143.054 14.8592 144.101 15.5216C145.147 16.184 145.973 17.1344 146.578 18.3728C147.182 19.6112 147.485 21.0752 147.485 22.7648C147.485 24.4352 147.182 25.8944 146.578 27.1424C145.973 28.3904 145.147 29.3456 144.101 30.008C143.054 30.6704 141.869 31.0016 140.544 31.0016C139.315 31.0016 138.259 30.7232 137.376 30.1664C136.493 29.6096 135.85 28.8512 135.446 27.8912ZM138.96 26.6816C137.923 26.6816 137.074 26.3264 136.411 25.616C135.749 24.9056 135.418 23.9552 135.418 22.7648C135.418 21.5552 135.749 20.6 136.411 19.8992C137.074 19.1984 137.923 18.848 138.96 18.848C140.016 18.848 140.866 19.1936 141.509 19.8848C142.152 20.576 142.474 21.536 142.474 22.7648C142.474 23.9936 142.152 24.9536 141.509 25.6448C140.866 26.336 140.016 26.6816 138.96 26.6816ZM160.387 30.3968C159.446 30.8 158.333 31.0016 157.046 31.0016C154.877 31.0016 153.139 30.5216 151.834 29.5616C150.528 28.6016 149.731 27.2288 149.443 25.4432H154.195C154.272 26.1344 154.565 26.6624 155.074 27.0272C155.582 27.392 156.24 27.5744 157.046 27.5744C157.603 27.5744 158.026 27.4448 158.314 27.1856C158.602 26.9264 158.746 26.5856 158.746 26.1632C158.746 25.6064 158.482 25.208 157.954 24.968C157.426 24.728 156.566 24.4736 155.376 24.2048C154.186 23.9552 153.206 23.6864 152.438 23.3984C151.67 23.1104 151.008 22.6448 150.451 22.0016C149.894 21.3584 149.616 20.48 149.616 19.3664C149.616 17.9264 150.163 16.76 151.258 15.8672C152.352 14.9744 153.898 14.528 155.894 14.528C157.93 14.528 159.557 15.0368 160.776 16.0544C161.995 17.072 162.758 18.416 163.066 20.0864H158.458C158.323 19.4336 158.021 18.92 157.55 18.5456C157.08 18.1712 156.49 17.984 155.779 17.984C155.222 17.984 154.8 18.104 154.512 18.344C154.224 18.584 154.08 18.9248 154.08 19.3664C154.08 19.8656 154.344 20.24 154.872 20.4896C155.4 20.7392 156.23 20.9888 157.363 21.2384C158.592 21.5264 159.6 21.8192 160.387 22.1168C161.174 22.4144 161.856 22.8992 162.432 23.5712C163.008 24.2432 163.296 25.1456 163.296 26.2784C163.296 27.2 163.046 28.016 162.547 28.7264C162.048 29.4368 161.328 29.9936 160.387 30.3968ZM171.821 30.9728C173.03 30.9728 174.091 30.6944 175.003 30.1376C175.915 29.5808 176.602 28.832 177.062 27.8912V30.8H182.016V14.7296H177.062V23.2544C177.062 24.4256 176.774 25.328 176.198 25.9616C175.622 26.5952 174.835 26.912 173.837 26.912C172.877 26.912 172.114 26.6096 171.547 26.0048C170.981 25.4 170.698 24.5504 170.698 23.456V14.7296H165.802V24.0608C165.802 26.2112 166.344 27.9008 167.429 29.1296C168.514 30.3584 169.978 30.9728 171.821 30.9728ZM190.339 22.2752V30.8H185.414V14.7296H190.339V17.4656C190.762 16.5632 191.41 15.8528 192.283 15.3344C193.157 14.816 194.179 14.5568 195.35 14.5568C196.579 14.5568 197.664 14.84 198.605 15.4064C199.546 15.9728 200.256 16.784 200.736 17.84C201.293 16.8416 202.056 16.0448 203.026 15.4496C203.995 14.8544 205.066 14.5568 206.237 14.5568C208.214 14.5568 209.77 15.1664 210.902 16.3856C212.035 17.6048 212.602 19.2992 212.602 21.4688V30.8H207.706V22.0448C207.706 21.0272 207.432 20.2352 206.885 19.6688C206.338 19.1024 205.594 18.8192 204.653 18.8192C203.674 18.8192 202.901 19.1216 202.334 19.7264C201.768 20.3312 201.485 21.1808 201.485 22.2752V30.8H196.56V22.0448C196.56 21.0272 196.291 20.2352 195.754 19.6688C195.216 19.1024 194.477 18.8192 193.536 18.8192C192.557 18.8192 191.779 19.1168 191.203 19.712C190.627 20.3072 190.339 21.1616 190.339 22.2752Z" fill="#D8D8D8"/>
<circle cx="214.4" cy="12.8" r="2.4" fill="white"/>
<path fill-rule="evenodd" clip-rule="evenodd" d="M27.2 28C34.7111 28 40.8 21.732 40.8 14C40.8 6.26801 34.7111 0 27.2 0C19.8189 0 13.8111 6.05299 13.6054 13.6C13.6036 13.6 13.6018 13.6 13.6 13.6C6.08893 13.6 0 19.868 0 27.6C0 35.332 6.08893 41.6 13.6 41.6C20.9811 41.6 26.9889 35.547 27.1946 28C27.1964 28 27.1982 28 27.2 28ZM13.6 14C13.6 21.7301 19.686 27.997 27.1946 28C27.1982 27.8671 27.2 27.7338 27.2 27.6C27.2 19.8699 21.114 13.603 13.6054 13.6C13.6018 13.7329 13.6 13.8662 13.6 14Z" fill="#D8D8D8"/>
<path fill-rule="evenodd" clip-rule="evenodd" d="M424.171 10.544V14.6336H419.477V10.544H424.171ZM364.296 28.3424V32H350.645V11.4944H355.138V28.3424H364.296ZM377.602 31.3088C376.45 31.9232 375.106 32.2304 373.57 32.2304C371.995 32.2304 370.632 31.9232 369.48 31.3088C368.328 30.6944 367.44 29.816 366.816 28.6736C366.192 27.5312 365.88 26.1824 365.88 24.6272C365.88 23.072 366.192 21.728 366.816 20.5952C367.44 19.4624 368.328 18.584 369.48 17.96C370.632 17.336 371.995 17.024 373.57 17.024C375.106 17.024 376.45 17.336 377.602 17.96C378.754 18.584 379.642 19.4624 380.266 20.5952C380.89 21.728 381.202 23.072 381.202 24.6272C381.202 26.1824 380.89 27.5312 380.266 28.6736C379.642 29.816 378.754 30.6944 377.602 31.3088ZM373.57 28.9184C372.475 28.9184 371.64 28.568 371.064 27.8672C370.488 27.1664 370.2 26.0864 370.2 24.6272C370.2 23.1872 370.493 22.1168 371.078 21.416C371.664 20.7152 372.494 20.3648 373.57 20.3648C374.626 20.3648 375.442 20.7152 376.018 21.416C376.594 22.1168 376.882 23.1872 376.882 24.6272C376.882 26.0864 376.594 27.1664 376.018 27.8672C375.442 28.568 374.626 28.9184 373.57 28.9184ZM396.768 36.6368C395.434 37.8464 393.47 38.4512 390.878 38.4512C388.574 38.4512 386.558 38 384.83 37.0976L385.493 33.872C386.357 34.3136 387.23 34.64 388.114 34.8512C388.997 35.0624 389.87 35.168 390.734 35.168C391.982 35.168 392.914 34.88 393.528 34.304L393.655 34.1759C394.185 33.6003 394.45 32.7598 394.45 31.6544L394.449 29.102L394.43 29.1329C394.237 29.426 394.004 29.7097 393.73 29.984C393.25 30.464 392.669 30.8528 391.987 31.1504C391.306 31.448 390.571 31.5968 389.784 31.5968C388.517 31.5968 387.394 31.2944 386.414 30.6896C385.435 30.0848 384.667 29.2352 384.11 28.1408C383.554 27.0464 383.275 25.7696 383.275 24.3104C383.275 22.8512 383.554 21.5792 384.11 20.4944C384.667 19.4096 385.435 18.56 386.414 17.9456C387.394 17.3312 388.517 17.024 389.784 17.024C390.974 17.024 392.026 17.3168 392.938 17.9024L393.16 18.0527C393.663 18.4125 394.067 18.836 394.371 19.3232L394.449 19.457L394.45 17.3984H398.77V31.3088C398.77 33.6512 398.102 35.4272 396.768 36.6368ZM391.051 28.2848C389.995 28.2848 389.155 27.9296 388.531 27.2192C387.907 26.5088 387.595 25.5392 387.595 24.3104C387.595 23.0816 387.902 22.1168 388.517 21.416C389.131 20.7152 389.976 20.3648 391.051 20.3648C392.126 20.3648 392.962 20.72 393.557 21.4304C394.152 22.1408 394.45 23.1008 394.45 24.3104C394.45 25.5584 394.147 26.5328 393.542 27.2336C392.938 27.9344 392.107 28.2848 391.051 28.2848ZM413.256 31.3088C412.104 31.9232 410.76 32.2304 409.224 32.2304C407.65 32.2304 406.286 31.9232 405.134 31.3088C403.982 30.6944 403.094 29.816 402.47 28.6736C401.846 27.5312 401.534 26.1824 401.534 24.6272C401.534 23.072 401.846 21.728 402.47 20.5952C403.094 19.4624 403.982 18.584 405.134 17.96C406.286 17.336 407.65 17.024 409.224 17.024C410.76 17.024 412.104 17.336 413.256 17.96C414.408 18.584 415.296 19.4624 415.92 20.5952C416.544 21.728 416.856 23.072 416.856 24.6272C416.856 26.1824 416.544 27.5312 415.92 28.6736C415.296 29.816 414.408 30.6944 413.256 31.3088ZM409.224 28.9184C408.13 28.9184 407.294 28.568 406.718 27.8672C406.142 27.1664 405.854 26.0864 405.854 24.6272C405.854 23.1872 406.147 22.1168 406.733 21.416C407.318 20.7152 408.149 20.3648 409.224 20.3648C410.28 20.3648 411.096 20.7152 411.672 21.416C412.248 22.1168 412.536 23.1872 412.536 24.6272C412.536 26.0864 412.248 27.1664 411.672 27.8672C411.096 28.568 410.28 28.9184 409.224 28.9184ZM423.998 32V17.3984H419.65V32H423.998ZM431.889 29.88L431.89 38.2208H427.541V21.5744C427.541 20.8832 427.526 20.1872 427.498 19.4864C427.469 18.7856 427.406 18.0896 427.31 17.3984H431.4L431.676 19.861L431.722 19.748C432.059 18.988 432.6 18.368 433.344 17.888C434.237 17.312 435.278 17.024 436.469 17.024C437.736 17.024 438.854 17.3456 439.824 17.9888C440.794 18.632 441.557 19.5344 442.114 20.696C442.67 21.8576 442.949 23.1968 442.949 24.7136C442.949 26.2304 442.67 27.5552 442.114 28.688C441.557 29.8208 440.794 30.6944 439.824 31.3088C438.854 31.9232 437.736 32.2304 436.469 32.2304C435.278 32.2304 434.237 31.952 433.344 31.3952L433.127 31.2514C432.635 30.9051 432.242 30.4837 431.949 29.9872L431.889 29.88ZM435.23 28.9184C434.136 28.9184 433.301 28.5536 432.725 27.824C432.149 27.0944 431.861 26.0384 431.861 24.656C431.861 23.2736 432.149 22.2128 432.725 21.4736C433.301 20.7344 434.136 20.3648 435.23 20.3648C436.286 20.3648 437.107 20.7488 437.693 21.5168C438.278 22.2848 438.571 23.3504 438.571 24.7136C438.571 26.0768 438.283 27.1184 437.707 27.8384C437.131 28.5584 436.306 28.9184 435.23 28.9184ZM455.923 31.0208C454.819 31.8272 453.298 32.2304 451.358 32.2304C448.574 32.2304 446.376 31.6352 444.763 30.4448L445.944 27.4208C446.712 27.9776 447.571 28.4048 448.522 28.7024C449.472 29 450.427 29.1488 451.387 29.1488C452.136 29.1488 452.712 29.0288 453.115 28.7888C453.518 28.5488 453.72 28.2176 453.72 27.7952C453.72 27.4304 453.576 27.1472 453.288 26.9456C453 26.744 452.491 26.5568 451.762 26.384L449.371 25.808C447.95 25.52 446.909 25.04 446.246 24.368C445.584 23.696 445.253 22.8032 445.253 21.6896C445.253 20.7872 445.517 19.9856 446.045 19.2848C446.573 18.584 447.307 18.032 448.248 17.6288C449.189 17.2256 450.283 17.024 451.531 17.024C452.587 17.024 453.605 17.1824 454.584 17.4992C455.563 17.816 456.456 18.2624 457.262 18.8384L456.053 21.7472C455.304 21.2288 454.541 20.8352 453.763 20.5664C452.986 20.2976 452.232 20.1632 451.502 20.1632C450.792 20.1632 450.235 20.288 449.832 20.5376C449.429 20.7872 449.227 21.1328 449.227 21.5744C449.227 21.9008 449.347 22.16 449.587 22.352C449.827 22.544 450.254 22.7168 450.869 22.8704L453.317 23.4176C454.814 23.7632 455.899 24.2816 456.571 24.9728C457.243 25.664 457.579 26.5856 457.579 27.7376C457.579 29.12 457.027 30.2144 455.923 31.0208ZM465.614 32.2304C466.709 32.2304 467.664 31.9664 468.48 31.4384C469.073 31.0544 469.563 30.5409 469.948 29.898L469.963 29.871L469.963 32H474.197V17.3984H469.819V25.4624C469.819 26.48 469.541 27.296 468.984 27.9104C468.427 28.5248 467.707 28.832 466.824 28.832C466.037 28.832 465.456 28.616 465.082 28.184C464.707 27.752 464.52 27.0848 464.52 26.1824V17.3984H460.171V26.096C460.171 28.1504 460.622 29.6864 461.525 30.704C462.427 31.7216 463.79 32.2304 465.614 32.2304ZM482.059 23.9648V32H477.71V21.5744C477.71 20.8832 477.696 20.1872 477.667 19.4864C477.638 18.7856 477.576 18.0896 477.48 17.3984H481.57L481.815 19.613L481.948 19.3814C482.327 18.755 482.82 18.2428 483.427 17.8448C484.262 17.2976 485.266 17.024 486.437 17.024C487.762 17.024 488.813 17.3648 489.59 18.0464L489.753 18.1978C490.123 18.5637 490.427 19.0171 490.665 19.5581L490.745 19.755L490.841 19.5908C491.248 18.9408 491.786 18.3924 492.456 17.9456C493.378 17.3312 494.424 17.024 495.595 17.024C497.266 17.024 498.504 17.5328 499.31 18.5504C500.117 19.568 500.52 21.104 500.52 23.1584V32H496.171V23.3024C496.171 22.304 496.008 21.5744 495.682 21.1136C495.355 20.6528 494.818 20.4224 494.069 20.4224C493.205 20.4224 492.523 20.7344 492.024 21.3584C491.525 21.9824 491.275 22.8512 491.275 23.9648V32H486.926V23.3024C486.926 22.304 486.763 21.5744 486.437 21.1136C486.11 20.6528 485.582 20.4224 484.853 20.4224C483.97 20.4224 483.283 20.7344 482.794 21.3584C482.304 21.9824 482.059 22.8512 482.059 23.9648Z" fill="#D8D8D8"/>
<path d="M311 5.40002V7.80002H339V5.40002H311Z" fill="#D8D8D8"/>
<path d="M311 10.2V12.6H339V10.2H311Z" fill="#D8D8D8"/>
<path d="M311 15V17.4H339V15H311Z" fill="#D8D8D8"/>
<path d="M311 19.8V22.2H339V19.8H311Z" fill="#D8D8D8"/>
<path d="M311 24.6V27H339V24.6H311Z" fill="#D8D8D8"/>
<path d="M311 29.4V31.8H339V29.4H311Z" fill="#D8D8D8"/>
<path d="M311 34.2V36.6H339V34.2H311Z" fill="#D8D8D8"/>
<path fill-rule="evenodd" clip-rule="evenodd" d="M727.869 13.8624C728.867 13.8624 729.674 13.5792 730.288 13.0128C730.902 12.4464 731.21 11.7312 731.21 10.8672C731.21 10.0416 730.902 9.3648 730.288 8.8368C729.674 8.3088 728.867 8.0448 727.869 8.0448C726.87 8.0448 726.064 8.3232 725.45 8.88C724.835 9.4368 724.528 10.128 724.528 10.9536C724.528 11.7792 724.835 12.4704 725.45 13.0272C726.064 13.584 726.87 13.8624 727.869 13.8624ZM664.538 31.2V26.6784H654.918V11.04H649.216V31.2H664.538ZM674.301 31.4592C675.99 31.4592 677.507 31.1136 678.851 30.4224C680.195 29.7312 681.242 28.7712 681.99 27.5424C682.739 26.3136 683.114 24.9216 683.114 23.3664C683.114 21.8112 682.739 20.424 681.99 19.2048C681.242 17.9856 680.195 17.0352 678.851 16.3536C677.507 15.672 675.99 15.3312 674.301 15.3312C672.611 15.3312 671.099 15.672 669.765 16.3536C668.43 17.0352 667.384 17.9904 666.626 19.2192C665.867 20.448 665.488 21.8304 665.488 23.3664C665.488 24.9216 665.867 26.3136 666.626 27.5424C667.384 28.7712 668.435 29.7312 669.779 30.4224C671.123 31.1136 672.63 31.4592 674.301 31.4592ZM671.939 26.1168C672.554 26.7792 673.341 27.1104 674.301 27.1104C675.261 27.1104 676.048 26.7792 676.662 26.1168C677.277 25.4544 677.584 24.5376 677.584 23.3664C677.584 22.2144 677.277 21.312 676.662 20.6592C676.048 20.0064 675.261 19.68 674.301 19.68C673.341 19.68 672.554 20.0064 671.939 20.6592C671.325 21.312 671.018 22.2144 671.018 23.3664C671.018 24.5376 671.325 25.4544 671.939 26.1168ZM693.28 37.0464C696.237 37.0464 698.502 36.3216 700.077 34.872C701.651 33.4224 702.438 31.248 702.438 28.3488V15.5904H697.226V17.4912C696.189 16.0512 694.557 15.3312 692.33 15.3312C690.947 15.3312 689.67 15.6432 688.499 16.2672C687.328 16.8912 686.397 17.7744 685.706 18.9168C685.014 20.0592 684.669 21.3696 684.669 22.848C684.669 24.3456 685.014 25.6656 685.706 26.808C686.397 27.9504 687.328 28.8336 688.499 29.4576C689.67 30.0816 690.947 30.3936 692.33 30.3936C694.365 30.3936 695.91 29.7792 696.966 28.5504V29.0688C696.966 30.3168 696.63 31.2576 695.958 31.8912C695.286 32.5248 694.23 32.8416 692.79 32.8416C691.85 32.8416 690.894 32.6928 689.925 32.3952C688.955 32.0976 688.154 31.6896 687.52 31.1712L685.533 35.0016C686.474 35.6736 687.616 36.1824 688.96 36.528C690.304 36.8736 691.744 37.0464 693.28 37.0464ZM691.178 25.152C691.83 25.7472 692.646 26.0448 693.626 26.0448C694.605 26.0448 695.416 25.7472 696.059 25.152C696.702 24.5568 697.024 23.7888 697.024 22.848C697.024 21.9072 696.707 21.144 696.074 20.5584C695.44 19.9728 694.624 19.68 693.626 19.68C692.627 19.68 691.806 19.9728 691.163 20.5584C690.52 21.144 690.198 21.9072 690.198 22.848C690.198 23.7888 690.525 24.5568 691.178 25.152ZM713.786 31.4592C715.475 31.4592 716.992 31.1136 718.336 30.4224C719.68 29.7312 720.726 28.7712 721.475 27.5424C722.224 26.3136 722.598 24.9216 722.598 23.3664C722.598 21.8112 722.224 20.424 721.475 19.2048C720.726 17.9856 719.68 17.0352 718.336 16.3536C716.992 15.672 715.475 15.3312 713.786 15.3312C712.096 15.3312 710.584 15.672 709.25 16.3536C707.915 17.0352 706.869 17.9904 706.11 19.2192C705.352 20.448 704.973 21.8304 704.973 23.3664C704.973 24.9216 705.352 26.3136 706.11 27.5424C706.869 28.7712 707.92 29.7312 709.264 30.4224C710.608 31.1136 712.115 31.4592 713.786 31.4592ZM711.424 26.1168C712.038 26.7792 712.826 27.1104 713.786 27.1104C714.746 27.1104 715.533 26.7792 716.147 26.1168C716.762 25.4544 717.069 24.5376 717.069 23.3664C717.069 22.2144 716.762 21.312 716.147 20.6592C715.533 20.0064 714.746 19.68 713.786 19.68C712.826 19.68 712.038 20.0064 711.424 20.6592C710.81 21.312 710.502 22.2144 710.502 23.3664C710.502 24.5376 710.81 25.4544 711.424 26.1168ZM730.605 15.5904V31.2H725.133V15.5904H730.605ZM739.619 36.7872V29.8176C740.694 30.912 742.144 31.4592 743.968 31.4592C745.389 31.4592 746.68 31.128 747.842 30.4656C749.003 29.8032 749.925 28.8624 750.606 27.6432C751.288 26.424 751.629 25.008 751.629 23.3952C751.629 21.7824 751.288 20.3664 750.606 19.1472C749.925 17.928 749.003 16.9872 747.842 16.3248C746.68 15.6624 745.389 15.3312 743.968 15.3312C741.914 15.3312 740.378 15.936 739.36 17.1456V15.5904H734.147V36.7872H739.619ZM740.454 26.1168C741.069 26.7792 741.856 27.1104 742.816 27.1104C743.776 27.1104 744.563 26.7792 745.178 26.1168C745.792 25.4544 746.099 24.5472 746.099 23.3952C746.099 22.2432 745.792 21.336 745.178 20.6736C744.563 20.0112 743.776 19.68 742.816 19.68C741.856 19.68 741.069 20.0112 740.454 20.6736C739.84 21.336 739.533 22.2432 739.533 23.3952C739.533 24.5472 739.84 25.4544 740.454 26.1168ZM759.837 31.4592C761.469 31.4592 762.866 31.2384 764.027 30.7968C765.189 30.3552 766.067 29.7456 766.662 28.968C767.258 28.1904 767.555 27.312 767.555 26.3328C767.555 25.1424 767.243 24.216 766.619 23.5536C765.995 22.8912 765.261 22.4352 764.416 22.1856C763.571 21.936 762.506 21.7152 761.219 21.5232C760.202 21.3696 759.472 21.2208 759.03 21.0768C758.589 20.9328 758.368 20.6784 758.368 20.3136C758.368 19.9872 758.57 19.7232 758.973 19.5216C759.376 19.32 760.01 19.2192 760.874 19.2192C762.486 19.2192 763.984 19.6032 765.366 20.3712L767.008 16.656C766.259 16.2336 765.328 15.9072 764.214 15.6768C763.101 15.4464 761.978 15.3312 760.845 15.3312C759.251 15.3312 757.883 15.5568 756.741 16.008C755.598 16.4592 754.73 17.0736 754.134 17.8512C753.539 18.6288 753.242 19.5168 753.242 20.5152C753.242 21.7248 753.558 22.6656 754.192 23.3376C754.826 24.0096 755.579 24.4704 756.453 24.72C757.326 24.9696 758.387 25.1712 759.635 25.3248C760.614 25.4592 761.33 25.5984 761.781 25.7424C762.232 25.8864 762.458 26.1312 762.458 26.4768C762.458 26.8224 762.27 27.0864 761.896 27.2688C761.522 27.4512 760.893 27.5424 760.01 27.5424C759.05 27.5424 758.08 27.4128 757.101 27.1536C756.122 26.8944 755.277 26.544 754.566 26.1024L752.925 29.8464C753.693 30.3264 754.71 30.7152 755.978 31.0128C757.245 31.3104 758.531 31.4592 759.837 31.4592ZM779.046 30.9696C778.24 31.296 777.386 31.4592 776.483 31.4592C774.467 31.4592 772.859 30.864 771.659 29.6736C770.459 28.4832 769.859 26.6976 769.859 24.3168V15.5904H775.331V23.424C775.331 24.5952 775.552 25.4496 775.994 25.9872C776.435 26.5248 777.078 26.7936 777.923 26.7936C778.787 26.7936 779.493 26.4912 780.04 25.8864C780.587 25.2816 780.861 24.3552 780.861 23.1072V15.5904H786.333V31.2H781.12V29.5296C780.544 30.1632 779.853 30.6432 779.046 30.9696ZM795.318 31.2V23.4528C795.318 22.2816 795.568 21.408 796.067 20.832C796.566 20.256 797.238 19.968 798.083 19.968C799.658 19.968 800.445 21.0336 800.445 23.1648V31.2H805.917V23.4528C805.917 22.2816 806.166 21.408 806.666 20.832C807.165 20.256 807.827 19.968 808.653 19.968C809.402 19.968 809.982 20.2272 810.395 20.7456C810.808 21.264 811.014 22.0704 811.014 23.1648V31.2H816.486V22.272C816.486 19.9488 815.915 18.2112 814.773 17.0592C813.63 15.9072 812.099 15.3312 810.179 15.3312C809.066 15.3312 808.038 15.5424 807.098 15.9648C806.157 16.3872 805.379 16.992 804.765 17.7792C804.227 16.9536 803.526 16.3392 802.662 15.936C801.798 15.5328 800.819 15.3312 799.725 15.3312C798.784 15.3312 797.915 15.4896 797.118 15.8064C796.322 16.1232 795.635 16.5984 795.059 17.232V15.5904H789.846V31.2H795.318ZM824.594 30.5376C823.97 31.152 823.187 31.4592 822.246 31.4592C821.325 31.4592 820.547 31.152 819.914 30.5376C819.28 29.9232 818.963 29.1456 818.963 28.2048C818.963 27.2448 819.275 26.4672 819.899 25.872C820.523 25.2768 821.306 24.9792 822.246 24.9792C823.206 24.9792 823.994 25.2768 824.608 25.872C825.222 26.4672 825.53 27.2448 825.53 28.2048C825.53 29.1456 825.218 29.9232 824.594 30.5376Z" fill="#D8D8D8"/>
<path fill-rule="evenodd" clip-rule="evenodd" d="M616.72 0L637.44 41.44H626.807C612.653 41.44 603.448 26.5448 609.777 13.885L616.72 0Z" fill="#D8D8D8"/>
<circle cx="601.88" cy="35.56" r="5.88" fill="#D8D8D8"/>
<path fill-rule="evenodd" clip-rule="evenodd" d="M1036.22 15.9608C1035.89 16.1 1035.53 16.1696 1035.16 16.1696C1034.8 16.1696 1034.45 16.1 1034.14 15.9608C1033.82 15.8216 1033.54 15.6344 1033.3 15.3992C1033.05 15.164 1032.86 14.8904 1032.72 14.5784C1032.58 14.2664 1032.51 13.9328 1032.51 13.5776C1032.51 13.2128 1032.58 12.872 1032.72 12.5552C1032.86 12.2384 1033.05 11.96 1033.3 11.72C1033.54 11.48 1033.82 11.2928 1034.14 11.1584C1034.45 11.024 1034.8 10.9568 1035.16 10.9568C1035.53 10.9568 1035.89 11.024 1036.22 11.1584C1036.55 11.2928 1036.84 11.48 1037.09 11.72C1037.34 11.96 1037.54 12.2384 1037.68 12.5552C1037.82 12.872 1037.9 13.2128 1037.9 13.5776C1037.9 13.9328 1037.82 14.2664 1037.68 14.5784C1037.54 14.8904 1037.34 15.164 1037.09 15.3992C1036.84 15.6344 1036.55 15.8216 1036.22 15.9608ZM982.571 32.6V28.712H974.795V11.6192H969.928V32.6H982.571ZM990.952 32.8304C992.085 32.8304 993.117 32.6504 994.048 32.2904C994.979 31.9304 995.778 31.4168 996.446 30.7496C997.113 30.0824 997.631 29.2712 998.001 28.316C998.37 27.3608 998.555 26.288 998.555 25.0976C998.555 23.9168 998.37 22.8536 998.001 21.908C997.631 20.9624 997.113 20.1584 996.446 19.496C995.778 18.8336 994.979 18.3248 994.048 17.9696C993.117 17.6144 992.085 17.4368 990.952 17.4368C989.81 17.4368 988.77 17.6144 987.834 17.9696C986.898 18.3248 986.092 18.8336 985.415 19.496C984.738 20.1584 984.215 20.9624 983.846 21.908C983.476 22.8536 983.291 23.9168 983.291 25.0976C983.291 26.288 983.476 27.3608 983.846 28.316C984.215 29.2712 984.738 30.0824 985.415 30.7496C986.092 31.4168 986.898 31.9304 987.834 32.2904C988.77 32.6504 989.81 32.8304 990.952 32.8304ZM988.634 28.4312C989.123 29.156 989.896 29.5184 990.952 29.5184C991.979 29.5184 992.735 29.156 993.22 28.4312C993.705 27.7064 993.947 26.6048 993.947 25.1264C993.947 23.648 993.705 22.5488 993.22 21.8288C992.735 21.1088 991.979 20.7488 990.952 20.7488C989.896 20.7488 989.123 21.1088 988.634 21.8288C988.144 22.5488 987.899 23.648 987.899 25.1264C987.899 26.6048 988.144 27.7064 988.634 28.4312ZM1006.27 37.7408C1007.46 37.7408 1008.52 37.5896 1009.44 37.2872C1010.36 36.9848 1011.14 36.584 1011.77 36.0848C1012.41 35.5856 1012.89 35.0144 1013.21 34.3712C1013.54 33.728 1013.7 33.0704 1013.7 32.3984C1013.7 31.6784 1013.57 31.0856 1013.31 30.62C1013.04 30.1544 1012.7 29.7824 1012.26 29.504C1011.83 29.2256 1011.34 29.024 1010.78 28.8992C1010.22 28.7744 1009.66 28.6856 1009.08 28.6328C1008.51 28.58 1007.94 28.5464 1007.38 28.532C1006.83 28.5176 1006.33 28.4888 1005.9 28.4456C1005.47 28.4024 1005.12 28.3256 1004.86 28.2152C1004.59 28.1048 1004.46 27.9248 1004.46 27.6752C1004.46 27.4256 1004.62 27.2048 1004.95 27.0128C1005.36 27.0704 1005.8 27.0992 1006.27 27.0992C1007.12 27.0992 1007.91 26.9864 1008.65 26.7608C1009.39 26.5352 1010.03 26.2136 1010.57 25.796C1011.11 25.3784 1011.54 24.872 1011.85 24.2768C1012.17 23.6816 1012.32 23.0096 1012.32 22.2608C1012.32 21.8 1012.25 21.3536 1012.12 20.9216L1013.21 20.6768C1013.55 20.6 1013.79 20.4896 1013.93 20.3456C1014.07 20.2016 1014.14 20.0048 1014.14 19.7552V18.128H1009.63C1009.15 17.8976 1008.63 17.72 1008.07 17.5952C1007.5 17.4704 1006.91 17.408 1006.27 17.408C1005.4 17.408 1004.59 17.5208 1003.84 17.7464C1003.09 17.972 1002.44 18.2936 1001.89 18.7112C1001.34 19.1288 1000.9 19.6376 1000.59 20.2376C1000.27 20.8376 1000.11 21.512 1000.11 22.2608C1000.11 23.1632 1000.33 23.9552 1000.78 24.6368C1001.23 25.3184 1001.84 25.8656 1002.62 26.2784C1002.27 26.4416 1001.97 26.6288 1001.72 26.84C1001.47 27.0512 1001.27 27.272 1001.1 27.5024C1000.94 27.7328 1000.82 27.9704 1000.74 28.2152C1000.67 28.46 1000.63 28.6928 1000.63 28.9136C1000.63 29.4416 1000.73 29.8784 1000.93 30.224C1001.13 30.5696 1001.4 30.8528 1001.74 31.0736C1001.04 31.3328 1000.48 31.6904 1000.08 32.1464C999.678 32.6024 999.477 33.1616 999.477 33.824C999.477 34.3328 999.611 34.8224 999.88 35.2928C1000.15 35.7632 1000.56 36.1784 1001.13 36.5384C1001.69 36.8984 1002.39 37.1888 1003.24 37.4096C1004.09 37.6304 1005.1 37.7408 1006.27 37.7408ZM1005.33 24.1976C1005.59 24.2984 1005.91 24.3488 1006.27 24.3488C1007.01 24.3488 1007.55 24.164 1007.88 23.7944C1008.21 23.4248 1008.38 22.9472 1008.38 22.3616C1008.38 21.7568 1008.21 21.2816 1007.88 20.936C1007.55 20.5904 1007.01 20.4176 1006.27 20.4176C1005.53 20.4176 1005 20.5904 1004.67 20.936C1004.34 21.2816 1004.17 21.7568 1004.17 22.3616C1004.17 22.6496 1004.21 22.9136 1004.29 23.1536C1004.38 23.3936 1004.5 23.6024 1004.68 23.78C1004.85 23.9576 1005.07 24.0968 1005.33 24.1976ZM1006.36 34.6736C1005.76 34.6736 1005.27 34.6376 1004.88 34.5656C1004.5 34.4936 1004.19 34.3952 1003.96 34.2704C1003.72 34.1456 1003.56 33.9968 1003.47 33.824C1003.38 33.6512 1003.34 33.4592 1003.34 33.248C1003.34 32.9504 1003.42 32.684 1003.6 32.4488C1003.78 32.2136 1004.01 32 1004.29 31.808C1004.7 31.856 1005.12 31.8872 1005.54 31.9016C1005.96 31.916 1006.37 31.9328 1006.76 31.952C1007.16 31.9712 1007.52 32 1007.86 32.0384C1008.21 32.0768 1008.5 32.1392 1008.76 32.2256C1009.01 32.312 1009.21 32.4272 1009.36 32.5712C1009.51 32.7152 1009.59 32.9072 1009.59 33.1472C1009.59 33.368 1009.54 33.572 1009.44 33.7592C1009.35 33.9464 1009.18 34.1072 1008.93 34.2416C1008.69 34.376 1008.36 34.4816 1007.94 34.5584C1007.53 34.6352 1007 34.6736 1006.36 34.6736ZM1025.81 32.2904C1024.88 32.6504 1023.85 32.8304 1022.72 32.8304C1021.58 32.8304 1020.54 32.6504 1019.6 32.2904C1018.66 31.9304 1017.86 31.4168 1017.18 30.7496C1016.5 30.0824 1015.98 29.2712 1015.61 28.316C1015.24 27.3608 1015.06 26.288 1015.06 25.0976C1015.06 23.9168 1015.24 22.8536 1015.61 21.908C1015.98 20.9624 1016.5 20.1584 1017.18 19.496C1017.86 18.8336 1018.66 18.3248 1019.6 17.9696C1020.54 17.6144 1021.58 17.4368 1022.72 17.4368C1023.85 17.4368 1024.88 17.6144 1025.81 17.9696C1026.75 18.3248 1027.54 18.8336 1028.21 19.496C1028.88 20.1584 1029.4 20.9624 1029.77 21.908C1030.14 22.8536 1030.32 23.9168 1030.32 25.0976C1030.32 26.288 1030.14 27.3608 1029.77 28.316C1029.4 29.2712 1028.88 30.0824 1028.21 30.7496C1027.54 31.4168 1026.75 31.9304 1025.81 32.2904ZM1022.72 29.5184C1021.66 29.5184 1020.89 29.156 1020.4 28.4312C1019.91 27.7064 1019.67 26.6048 1019.67 25.1264C1019.67 23.648 1019.91 22.5488 1020.4 21.8288C1020.89 21.1088 1021.66 20.7488 1022.72 20.7488C1023.75 20.7488 1024.5 21.1088 1024.99 21.8288C1025.47 22.5488 1025.71 23.648 1025.71 25.1264C1025.71 26.6048 1025.47 27.7064 1024.99 28.4312C1024.5 29.156 1023.75 29.5184 1022.72 29.5184ZM1037.38 32.6V17.6672H1032.91V32.6H1037.38ZM1045.44 31.6064V37.3376H1040.98V17.6672H1043.74C1044.02 17.6672 1044.25 17.7296 1044.44 17.8544C1044.63 17.9792 1044.76 18.1664 1044.84 18.416L1045.17 19.5104C1045.46 19.1936 1045.77 18.9056 1046.1 18.6464C1046.43 18.3872 1046.78 18.164 1047.16 17.9768C1047.54 17.7896 1047.95 17.6432 1048.39 17.5376C1048.82 17.432 1049.3 17.3792 1049.82 17.3792C1050.6 17.3792 1051.32 17.552 1051.98 17.8976C1052.64 18.2432 1053.21 18.7424 1053.69 19.3952C1054.17 20.048 1054.55 20.8472 1054.82 21.7928C1055.1 22.7384 1055.23 23.8112 1055.23 25.0112C1055.23 26.1344 1055.08 27.1712 1054.77 28.1216C1054.45 29.072 1054.02 29.8976 1053.46 30.5984C1052.89 31.2992 1052.22 31.8464 1051.44 32.24C1050.66 32.6336 1049.79 32.8304 1048.84 32.8304C1048.06 32.8304 1047.41 32.72 1046.88 32.4992C1046.35 32.2784 1045.87 31.9808 1045.44 31.6064ZM1047.77 29.5472C1047.34 29.5472 1046.93 29.4728 1046.54 29.324C1046.14 29.1752 1045.78 28.9136 1045.44 28.5392V22.2032C1045.63 21.9728 1045.83 21.7688 1046.02 21.5912C1046.21 21.4136 1046.42 21.2672 1046.64 21.152C1046.87 21.0368 1047.11 20.948 1047.38 20.8856C1047.64 20.8232 1047.94 20.792 1048.26 20.792C1048.62 20.792 1048.94 20.864 1049.23 21.008C1049.52 21.152 1049.76 21.3896 1049.97 21.7208C1050.18 22.052 1050.34 22.4864 1050.45 23.024C1050.57 23.5616 1050.63 24.224 1050.63 25.0112C1050.63 25.8368 1050.55 26.5376 1050.41 27.1136C1050.27 27.6896 1050.07 28.1576 1049.81 28.5176C1049.56 28.8776 1049.26 29.1392 1048.91 29.3024C1048.57 29.4656 1048.19 29.5472 1047.77 29.5472ZM1064.27 32.456C1063.49 32.7056 1062.59 32.8304 1061.57 32.8304C1061.06 32.8304 1060.55 32.7824 1060.04 32.6864C1059.53 32.5904 1059.04 32.4608 1058.57 32.2976C1058.09 32.1344 1057.65 31.94 1057.25 31.7144C1056.85 31.4888 1056.5 31.2464 1056.21 30.9872L1057.25 29.3456C1057.37 29.1536 1057.52 29.0024 1057.7 28.892C1057.87 28.7816 1058.09 28.7264 1058.37 28.7264C1058.63 28.7264 1058.86 28.784 1059.07 28.8992C1059.28 29.0144 1059.5 29.1392 1059.74 29.2736C1059.98 29.408 1060.26 29.5328 1060.58 29.648C1060.9 29.7632 1061.31 29.8208 1061.8 29.8208C1062.15 29.8208 1062.44 29.7848 1062.68 29.7128C1062.92 29.6408 1063.11 29.5424 1063.25 29.4176C1063.4 29.2928 1063.5 29.1536 1063.57 29C1063.64 28.8464 1063.67 28.688 1063.67 28.5248C1063.67 28.2272 1063.57 27.9824 1063.37 27.7904C1063.17 27.5984 1062.9 27.4328 1062.58 27.2936C1062.25 27.1544 1061.88 27.0248 1061.46 26.9048C1061.04 26.7848 1060.62 26.648 1060.19 26.4944C1059.76 26.3408 1059.33 26.156 1058.91 25.94C1058.5 25.724 1058.12 25.4504 1057.8 25.1192C1057.47 24.788 1057.21 24.3824 1057 23.9024C1056.8 23.4224 1056.7 22.8416 1056.7 22.16C1056.7 21.5264 1056.82 20.924 1057.07 20.3528C1057.31 19.7816 1057.68 19.28 1058.17 18.848C1058.66 18.416 1059.28 18.0728 1060.01 17.8184C1060.75 17.564 1061.62 17.4368 1062.61 17.4368C1063.14 17.4368 1063.66 17.4848 1064.17 17.5808C1064.67 17.6768 1065.15 17.8112 1065.59 17.984C1066.03 18.1568 1066.43 18.3608 1066.8 18.596C1067.16 18.8312 1067.48 19.088 1067.76 19.3664L1066.75 20.936C1066.64 21.1184 1066.52 21.248 1066.39 21.3248C1066.26 21.4016 1066.09 21.44 1065.89 21.44C1065.68 21.44 1065.47 21.3944 1065.26 21.3032L1064.57 21.008C1064.33 20.9024 1064.05 20.804 1063.74 20.7128C1063.44 20.6216 1063.09 20.576 1062.69 20.576C1062.13 20.576 1061.69 20.684 1061.39 20.9C1061.09 21.116 1060.94 21.416 1060.94 21.8C1060.94 22.0784 1061.03 22.3088 1061.23 22.4912C1061.43 22.6736 1061.69 22.8344 1062.02 22.9736C1062.34 23.1128 1062.71 23.2448 1063.12 23.3696C1063.54 23.4944 1063.96 23.6336 1064.39 23.7872C1064.82 23.9408 1065.25 24.1208 1065.66 24.3272C1066.07 24.5336 1066.44 24.788 1066.77 25.0904C1067.09 25.3928 1067.36 25.76 1067.55 26.192C1067.75 26.624 1067.85 27.1424 1067.85 27.7472C1067.85 28.4864 1067.71 29.168 1067.44 29.792C1067.18 30.416 1066.78 30.9536 1066.24 31.4048C1065.71 31.856 1065.05 32.2064 1064.27 32.456ZM1075.08 32.8304C1075.56 32.8304 1076 32.7848 1076.4 32.6936C1076.8 32.6024 1077.18 32.4776 1077.53 32.3192C1077.88 32.1608 1078.21 31.9688 1078.52 31.7432C1078.83 31.5176 1079.12 31.2656 1079.41 30.9872L1079.68 31.8512C1079.86 32.3504 1080.22 32.6 1080.78 32.6H1083.54V17.6672H1079.08V28.3088C1078.68 28.6736 1078.26 28.9568 1077.83 29.1584C1077.41 29.36 1076.95 29.4608 1076.46 29.4608C1075.81 29.4608 1075.31 29.2592 1074.98 28.856C1074.64 28.4528 1074.47 27.8816 1074.47 27.1424V17.6672H1070.01V27.1424C1070.01 27.968 1070.12 28.7264 1070.34 29.4176C1070.56 30.1088 1070.89 30.7088 1071.32 31.2176C1071.75 31.7264 1072.28 32.1224 1072.91 32.4056C1073.54 32.6888 1074.26 32.8304 1075.08 32.8304ZM1091.46 21.8V32.6H1087V17.6672H1089.76C1090.04 17.6672 1090.28 17.7296 1090.46 17.8544C1090.65 17.9792 1090.78 18.1664 1090.86 18.416L1091.1 19.2224C1091.35 18.9632 1091.61 18.7256 1091.88 18.5096C1092.15 18.2936 1092.44 18.1064 1092.75 17.948C1093.06 17.7896 1093.4 17.6648 1093.76 17.5736C1094.12 17.4824 1094.52 17.4368 1094.95 17.4368C1095.85 17.4368 1096.6 17.6696 1097.19 18.1352C1097.78 18.6008 1098.23 19.2224 1098.53 20C1098.78 19.5392 1099.09 19.1456 1099.45 18.8192C1099.81 18.4928 1100.2 18.2288 1100.62 18.0272C1101.03 17.8256 1101.47 17.6768 1101.94 17.5808C1102.41 17.4848 1102.87 17.4368 1103.33 17.4368C1104.18 17.4368 1104.94 17.564 1105.6 17.8184C1106.27 18.0728 1106.82 18.4424 1107.27 18.9272C1107.71 19.412 1108.05 20.0072 1108.28 20.7128C1108.51 21.4184 1108.63 22.2176 1108.63 23.1104V32.6H1104.16V23.1104C1104.16 21.5648 1103.5 20.792 1102.18 20.792C1101.57 20.792 1101.07 20.9912 1100.67 21.3896C1100.27 21.788 1100.08 22.3616 1100.08 23.1104V32.6H1095.61V23.1104C1095.61 22.256 1095.44 21.656 1095.11 21.3104C1094.77 20.9648 1094.28 20.792 1093.62 20.792C1093.22 20.792 1092.84 20.8832 1092.48 21.0656C1092.12 21.248 1091.78 21.4928 1091.46 21.8Z" fill="#D8D8D8"/>
<rect x="921" y="3" width="37.6" height="37.6" rx="5.6" fill="#D8D8D8"/>
<path fill-rule="evenodd" clip-rule="evenodd" d="M940.2 29.8L931.266 34.4971L932.972 24.5485L925.744 17.5029L935.733 16.0515L940.2 7L944.667 16.0515L954.656 17.5029L947.428 24.5485L949.134 34.4971L940.2 29.8Z" fill="white"/>
</svg>
