<svg width="32" height="27" viewBox="0 0 32 27" fill="none" xmlns="http://www.w3.org/2000/svg">
<g filter="url(#filter0_d_0_332)">
<path d="M25.8906 0H6.10938C5.78467 0 5.48069 0.0798281 5.20567 0.211406L15.9531 10.9589L18.362 8.64384C18.362 8.64384 18.3622 8.64361 18.3622 8.64352C18.3623 8.64342 18.3625 8.64333 18.3625 8.64333L26.7947 0.211594C26.5196 0.0799219 26.2154 0 25.8906 0Z" fill="#E8E8E8"/>
<path d="M27.7889 1.20599L19.8537 9.14071L27.7886 17.0756C27.9202 16.8006 28 16.4966 28 16.1719V2.10937C28 1.78485 27.9204 1.48092 27.7889 1.20599Z" fill="#E8E8E8"/>
<path d="M4.21141 1.20566C4.07983 1.48067 4 1.78466 4 2.10936V16.1719C4 16.4964 4.07973 16.8004 4.21122 17.0753L12.1464 9.14061L4.21141 1.20566Z" fill="#E8E8E8"/>
<path d="M18.8595 10.135L16.4503 12.4503C16.3129 12.5876 16.133 12.6563 15.9532 12.6563C15.7733 12.6563 15.5934 12.5876 15.4561 12.4503L13.1406 10.1349L5.20535 18.0697C5.48041 18.2013 5.78458 18.2812 6.10938 18.2812H25.8906C26.2153 18.2812 26.5193 18.2014 26.7943 18.0698L18.8595 10.135Z" fill="#E8E8E8"/>
</g>
<defs>
<filter id="filter0_d_0_332" x="0" y="0" width="32" height="26.2812" filterUnits="userSpaceOnUse" color-interpolation-filters="sRGB">
<feFlood flood-opacity="0" result="BackgroundImageFix"/>
<feColorMatrix in="SourceAlpha" type="matrix" values="0 0 0 0 0 0 0 0 0 0 0 0 0 0 0 0 0 0 127 0" result="hardAlpha"/>
<feOffset dy="4"/>
<feGaussianBlur stdDeviation="2"/>
<feComposite in2="hardAlpha" operator="out"/>
<feColorMatrix type="matrix" values="0 0 0 0 0 0 0 0 0 0 0 0 0 0 0 0 0 0 0.25 0"/>
<feBlend mode="normal" in2="BackgroundImageFix" result="effect1_dropShadow_0_332"/>
<feBlend mode="normal" in="SourceGraphic" in2="effect1_dropShadow_0_332" result="shape"/>
</filter>
</defs>
</svg>
